<?xml version="1.0" standalone="no"?>
<!DOCTYPE svg PUBLIC "-//W3C//DTD SVG 20010904//EN"
 "http://www.w3.org/TR/2001/REC-SVG-20010904/DTD/svg10.dtd">
<svg version="1.0" xmlns="http://www.w3.org/2000/svg"
 width="500.000000pt" height="500.000000pt" viewBox="0 0 500.000000 500.000000"
 preserveAspectRatio="xMidYMid meet">

<g transform="translate(0.000000,500.000000) scale(0.100000,-0.100000)"
fill="#000000" stroke="none">
<path d="M1720 3330 c0 -5 12 -10 28 -10 40 0 104 -20 126 -38 24 -21 52 -85
61 -138 6 -39 5 -41 -68 -116 -141 -143 -204 -321 -195 -547 8 -184 64 -321
184 -451 l54 -58 -28 -30 c-25 -27 -96 -52 -147 -52 -8 0 -15 -4 -15 -10 0 -6
70 -10 189 -10 144 0 206 -4 258 -17 101 -25 293 -22 405 5 98 24 195 65 262
111 l45 31 57 -70 c46 -57 61 -70 85 -70 l29 0 0 553 c0 695 10 811 76 869 22
18 86 38 127 38 15 0 27 5 27 10 0 6 -92 10 -255 10 -242 0 -321 -9 -199 -24
76 -9 108 -28 133 -78 37 -77 42 -160 39 -662 l-3 -479 -414 515 c-227 284
-413 520 -413 524 1 14 92 32 169 33 93 1 207 -21 277 -54 71 -33 146 -115
176 -192 13 -32 27 -62 32 -67 4 -6 8 47 8 116 l0 126 -62 25 c-168 67 -403
100 -545 78 -39 -6 -77 -13 -85 -16 -8 -3 -38 26 -76 75 l-63 80 -140 0 c-86
0 -139 -4 -139 -10z m725 -779 c380 -481 406 -516 388 -529 -42 -33 -208 -104
-275 -118 -111 -24 -287 -22 -368 4 -74 24 -156 74 -164 100 -20 66 -26 197
-26 586 0 396 2 441 17 458 9 10 17 17 18 16 2 -2 186 -234 410 -517z m-502
-398 l-8 -46 -28 57 c-62 127 -90 325 -68 491 14 101 52 226 84 276 l22 34 3
-383 c1 -211 -1 -404 -5 -429z"/>
</g>
</svg>
